# xmcd CD database generated by RipIT
#
# Track frame offsets:
# 150
# 15559
# 37165
# 49590
# 70467
# 94402
# 116691
# 131396
# 149279
# 161895
#
# Disc length: 2473 seconds
#
# Revision: 0
# Processed by: cddbd v1.5.2PL0 Copyright (c) Steve Scherf et al.
# Submitted via: RipIT 3.9.0 www.suwald.com/ripit/ripit.html on 2015-03-15 at 11:17
#
DISCID=9009a70a
DTITLE=Gilles Blandin - One Note Blues
DYEAR=2011
DGENRE=
TTITLE0=To be or not boogie
TTITLE1=Cry Me a river
TTITLE2=Laisse-moi regarder sous ton blues, darling !
TTITLE3=What a difference a day made
TTITLE4=Saint Louis Blues
TTITLE5=Angel Eyes
TTITLE6=Lady be good
TTITLE7=Blues Outre-mer
TTITLE8=Boogie d'Gil
TTITLE9=Creole Love Call
EXTD=
EXTT0=
EXTT1=
EXTT2=
EXTT3=
EXTT4=
EXTT5=
EXTT6=
EXTT7=
EXTT8=
EXTT9=
PLAYORDER=
